<?xml version="1.0" encoding="UTF-8"?>
<!DOCTYPE svg PUBLIC "-//W3C//DTD SVG 1.1//EN" "http://www.w3.org/Graphics/SVG/1.1/DTD/svg11.dtd">
<!-- Creator: CorelDRAW X7 -->
<svg xmlns="http://www.w3.org/2000/svg" xml:space="preserve" width="3.6in" height="3.6in" version="1.1" style="shape-rendering:geometricPrecision; text-rendering:geometricPrecision; image-rendering:optimizeQuality; fill-rule:evenodd; clip-rule:evenodd"
viewBox="0 0 3600 3600"
 xmlns:xlink="http://www.w3.org/1999/xlink">
 <defs>
  <style type="text/css">
   <![CDATA[
    .fil5 {fill:none}
    .fil0 {fill:#000000}
    .fil3 {fill:#575757}
    .fil4 {fill:#6B6B6B}
    .fil2 {fill:#BEBEBE}
    .fil1 {fill:#FBFBFB}
   ]]>
  </style>
   <clipPath id="id0">
    <path d="M0 0l3600 0 0 3600 -3600 0 0 -3600z"/>
   </clipPath>
 </defs>
 <g id="Layer_x0020_1">
  <metadata id="CorelCorpID_0Corel-Layer"/>
  <g>
  </g>
  <g style="clip-path:url(#id0)">
   <g>
    <path class="fil0" d="M2156 82c-18,-6 -22,-15 -38,-25l-41 -25c-9,-6 -29,-20 -40,-24 -43,-14 -68,-40 -133,-63 -30,-10 -56,-33 -83,-47 -73,-37 -79,-32 -151,-42 -44,-6 -51,-23 -113,-14 -37,6 -96,-1 -183,16 -33,6 -60,28 -91,39 -19,7 -29,7 -47,16 -35,18 -81,25 -108,55 -8,9 -9,9 -18,16l-73 60c-69,58 -68,45 -132,129 -40,54 -45,44 -79,84 -11,13 -21,22 -30,36 -11,16 -36,42 -41,56 -9,32 9,0 -21,46 -44,70 -53,107 -68,193l-32 163c-7,17 -8,5 -10,22 -8,62 32,182 55,237 14,32 28,59 38,96 32,116 35,130 98,225l55 78c10,13 21,20 39,28 21,9 22,14 38,25 15,11 23,16 39,28l101 59c12,5 14,3 25,9 15,9 24,16 41,25 29,14 63,29 88,44 -5,31 -19,22 -3,61 5,12 1,18 5,35 7,31 20,60 28,92 15,60 17,59 43,113 10,20 14,37 27,54 39,54 -7,15 45,75 47,55 101,88 172,104 23,5 38,15 58,22 24,8 29,19 55,25 27,6 37,0 66,14 11,5 14,10 26,14 10,5 19,7 29,11 17,8 39,19 58,22l186 -8c98,10 76,-10 155,-36 72,-24 51,-17 111,-49 19,-10 33,-14 54,-26l50 -27c19,-9 38,-15 56,-24 61,-30 101,-85 157,-123 55,-37 97,-88 133,-144 11,-18 17,-34 28,-51 64,-107 64,-100 86,-231 9,-54 -4,-103 6,-154 4,-23 1,-48 8,-69 6,-19 53,-37 70,-49 10,-7 14,-13 22,-19 18,-13 31,-19 50,-30 57,-36 109,-83 131,-148 16,-45 24,-19 50,-147 12,-62 17,-78 1,-142 -11,-44 -19,-79 -42,-118 -15,-25 -19,-7 -36,-44 -15,-33 -31,-44 -62,-54l-74 -47c-17,-12 -96,-35 -121,-38 -63,-6 -151,23 -216,24 -37,0 -32,-9 -74,-2 -23,-24 -52,-44 -74,-72 -5,-5 -5,-6 -11,-12l-12 -17c48,-23 91,-65 131,-98 20,-17 46,-33 64,-53 22,-23 38,-28 57,-60 29,-46 75,-89 57,-163 -8,-38 -7,-60 -27,-89 -16,-23 -35,-42 -53,-64 -23,-28 -42,-25 -68,-45 -33,-26 -23,-29 -76,-42 -27,-7 -78,0 -105,8 -46,14 -42,26 -71,45 -13,9 -24,13 -36,21l-64 52c-22,17 -46,33 -63,55 -9,12 -19,20 -28,32l-44 71zm584 649c2,16 18,54 24,77 10,36 9,50 23,84 22,52 36,107 41,173 11,-6 73,-74 90,-90 24,-24 18,-27 34,-59 8,-17 22,-48 26,-67 7,-41 -23,-66 -35,-79 -9,-8 -11,-18 -40,-30 -4,-2 -72,-14 -77,-15 -28,-2 -63,-5 -86,6zm-569 -634c17,21 29,35 40,64 6,14 11,23 17,37 21,49 37,68 50,110 8,28 19,56 26,80l26 -18c12,-10 50,-30 73,-56 10,-11 10,-12 20,-20 26,-20 15,-30 72,-59 21,-11 33,-20 49,-33 16,-14 31,-23 49,-38 9,-7 43,-28 51,-33 72,-40 97,-7 42,39 -8,7 -13,10 -24,20 -8,8 -14,16 -22,24 -31,30 -71,56 -97,86 -32,35 -62,58 -102,82 -23,14 -87,73 -110,70 -11,-22 8,-17 38,-42l74 -53c30,-23 44,-29 73,-57l65 -62c8,-7 15,-10 24,-19 25,-22 36,-41 67,-64 9,-7 15,-11 21,-22 -51,8 -128,86 -201,126 -31,17 -83,85 -132,115 -9,6 -17,8 -24,16 -11,12 -3,13 -22,20l19 73 116 -70c20,-17 107,-75 144,-106l68 -56c44,-40 125,-133 114,-197 -14,-81 -22,-91 -70,-146 -52,-58 -33,-11 -92,-68 -46,-43 -154,-24 -189,8 -17,17 -63,44 -106,80 -23,19 -47,28 -69,58 -27,34 -18,15 -56,71 -8,12 -16,31 -22,40zm-1381 236c8,43 -2,14 -34,64 -48,79 -44,64 -62,157 -7,31 -15,63 -21,92 -7,36 -17,106 -27,140 -19,65 65,239 85,299 9,29 17,59 25,88 19,70 78,152 121,212 27,37 35,24 66,48l62 48c23,17 82,42 110,56 14,7 23,15 35,22 24,14 49,24 73,37 23,13 17,7 43,11 15,2 28,9 44,12 63,12 257,32 312,23 8,-1 12,-3 22,-1 47,10 10,6 71,-3 35,-4 61,-9 93,-20 28,-9 62,-14 86,-24 14,-5 25,-11 40,-16 14,-5 25,-13 38,-19 72,-35 51,-30 101,-65 83,-60 64,-61 116,-107 7,-6 9,-8 14,-13 26,-27 25,-11 60,-80 28,-55 24,-33 50,-64 7,-8 32,-60 36,-73 10,-32 29,-150 34,-187 8,-66 52,-140 5,-232 -10,-19 -5,-25 -10,-47l-50 -173c-24,-52 -67,-212 -86,-248 -12,-24 -64,-137 -75,-148 -52,-51 -62,-45 -96,-70 -9,-6 -25,-18 -34,-23 -17,-8 -25,-5 -41,-16 -56,-39 -74,-32 -113,-54 -24,-13 -45,-28 -68,-41 -7,-4 -29,-16 -36,-18 -16,-6 -53,2 -90,-16 -17,-9 -26,-7 -44,-13 -37,-12 -53,-13 -96,-8 -21,3 -36,-1 -56,0 -17,2 -33,6 -50,6 -111,5 -96,33 -172,51l-118 50c-11,7 -17,18 -29,28 -20,16 -44,32 -61,49 -43,40 -91,67 -119,104 -16,23 -30,45 -48,66 -21,24 -36,28 -56,53 -9,11 -19,20 -26,31 -9,15 -13,21 -24,32z"/>
    <path class="fil1" d="M790 333c8,43 -2,14 -34,64 -48,79 -44,64 -62,157 -7,31 -15,63 -21,92 -7,36 -17,106 -27,140 -19,65 65,239 85,299 9,29 17,59 25,88 19,70 78,152 121,212 27,37 35,24 66,48l62 48c23,17 82,42 110,56 14,7 23,15 35,22 24,14 49,24 73,37 23,13 17,7 43,11 15,2 28,9 44,12 63,12 257,32 312,23 8,-1 12,-3 22,-1 47,10 10,6 71,-3 35,-4 61,-9 93,-20 28,-9 62,-14 86,-24 14,-5 25,-11 40,-16 14,-5 25,-13 38,-19 72,-35 51,-30 101,-65 83,-60 64,-61 116,-107 7,-6 9,-8 14,-13 26,-27 25,-11 60,-80 28,-55 24,-33 50,-64 7,-8 32,-60 36,-73 10,-32 29,-150 34,-187 8,-66 52,-140 5,-232 -10,-19 -5,-25 -10,-47l-50 -173c-24,-52 -67,-212 -86,-248 -12,-24 -64,-137 -75,-148 -52,-51 -62,-45 -96,-70 -9,-6 -25,-18 -34,-23 -17,-8 -25,-5 -41,-16 -56,-39 -74,-32 -113,-54 -24,-13 -45,-28 -68,-41 -7,-4 -29,-16 -36,-18 -16,-6 -53,2 -90,-16 -17,-9 -26,-7 -44,-13 -37,-12 -53,-13 -96,-8 -21,3 -36,-1 -56,0 -17,2 -33,6 -50,6 -111,5 -96,33 -172,51l-118 50c-11,7 -17,18 -29,28 -20,16 -44,32 -61,49 -43,40 -91,67 -119,104 -16,23 -30,45 -48,66 -21,24 -36,28 -56,53 -9,11 -19,20 -26,31 -9,15 -13,21 -24,32z"/>
    <path class="fil0" d="M1564 -38c-53,5 -141,4 -186,17 -14,4 -25,7 -40,9 -31,3 -8,-13 -35,-5 -11,3 -25,11 -36,15l-168 82 -57 42c-21,18 0,10 -50,51 -9,7 -16,14 -27,22 -30,21 -28,18 -52,48l-39 62c-24,55 -13,45 -47,102 -19,31 -32,74 -44,107 -16,40 -33,164 -40,209 -22,137 -23,132 5,262 12,54 67,166 98,202 14,17 26,44 38,61 15,21 56,68 65,85l64 87c39,42 140,68 201,99 27,13 47,13 76,24 51,19 20,10 86,12 84,3 123,0 200,0 32,-1 65,-6 92,-1 49,8 181,-40 230,-65 89,-45 102,-67 154,-96 7,-4 25,-15 29,-21 17,-24 -14,-7 49,-52 21,-15 35,-28 53,-47 12,-13 30,-42 40,-59 26,-42 11,-84 40,-160 9,-24 12,-57 19,-81 20,-70 19,-52 29,-122 4,-29 -5,-22 -6,-41 0,-16 6,-31 2,-50 -3,-15 -6,-25 -7,-44 -2,-38 1,-51 -12,-88 -17,-51 -32,-97 -54,-146l-49 -152c-9,-24 -10,5 -28,-21 -8,-11 -11,-21 -18,-32 -9,-13 -18,-13 -26,-24 -5,-7 -12,-24 -18,-32 -8,-11 -12,-14 -21,-30 -34,-60 -11,-26 -72,-77 -20,-17 -88,-79 -110,-90 -18,-10 -49,-22 -70,-30 -36,-13 -80,-28 -121,-25 -20,1 -97,-10 -137,-7z"/>
    <path class="fil1" d="M2278 913c-1,-1 -2,-2 -2,-2l-8 -12c-2,-11 27,-83 16,-140 -13,-65 13,-41 -27,-164 -12,-37 -46,-113 -53,-140 -16,-59 -15,-29 -30,-66 -32,-76 -28,-53 -50,-98 -9,-18 -13,-7 -25,-24l-37 -59c-7,-12 -11,-19 -18,-29 -11,-17 -35,-35 -53,-48 -7,-6 -16,-16 -26,-24 -10,-8 -12,-12 -25,-21 -11,-8 -19,-14 -28,-22 -44,-39 -113,-59 -171,-73 -31,-7 -10,6 -38,2 -14,-2 -23,-6 -40,-7 -55,-4 -86,-5 -141,0 -31,3 -61,0 -92,5 -44,6 -136,29 -164,32 -13,1 -146,66 -165,78 -52,34 -75,77 -130,114 -17,10 -41,34 -49,48 -45,72 -34,72 -64,132 -11,22 -23,37 -34,63 -15,35 -37,115 -45,152 -6,23 -7,60 -11,86 -23,148 -34,114 -7,255 12,61 24,89 51,143 36,73 24,45 56,90 7,10 12,21 19,32 15,22 26,36 40,56l63 81c8,9 14,20 20,29 14,21 26,37 51,49 61,29 91,37 136,58 73,33 97,30 111,36 13,6 -4,10 38,10 67,0 221,5 287,-3 103,-12 39,27 235,-50 29,-12 108,-55 125,-72l39 -31c14,-11 10,-6 12,-14 12,-32 -11,-4 52,-45 22,-13 37,-28 54,-42 30,-25 66,-81 71,-125 9,-74 11,-61 28,-117 4,-14 3,-29 7,-43 6,-26 16,-52 22,-80z"/>
    <path class="fil1" d="M26 1842l0 1485c15,8 25,22 32,35 16,32 42,28 73,56 8,8 5,9 16,18 7,5 10,8 18,15 34,28 53,38 93,70l4 3c3,2 3,2 6,4 13,10 34,38 41,40l42 -20c13,-10 22,-19 36,-28 17,-10 22,-14 36,-27 22,-18 39,-21 56,-40l51 -49c28,-28 17,-21 50,-47 42,-34 80,-69 117,-110 0,0 1,-1 1,-2 1,0 1,-1 2,-1 1,-1 3,-4 5,-5 4,-5 3,-5 8,-9l119 -107c16,-13 19,-23 32,-35 37,-33 23,-15 62,-64 26,-32 30,-43 59,-72 36,-35 15,-3 44,-52 7,-11 7,-9 15,-19l46 -51c9,-8 8,-22 44,-52 23,-20 40,-58 54,-76l62 -68c23,-24 24,-29 47,-50l54 -47c-6,-4 -9,-3 -16,-10 1,-21 14,-11 -7,-26 -13,-10 -11,-11 -21,-23 -20,-25 -81,-72 -111,-98 -30,-25 -80,-52 -118,-92 -9,-9 -11,-13 -19,-21 -36,-34 -21,-23 -42,-45l-41 -42c-11,-9 -14,-10 -23,-20l-45 -39c-51,-39 -125,-127 -149,-147 -9,-7 -15,-11 -23,-21 -13,-16 -62,-47 -69,-58 -14,-19 0,-7 -25,-18 -9,-16 1,-11 -16,-23 -48,-32 -77,-90 -157,-136 -22,-13 -42,-35 -52,-52 -13,-22 -16,-15 -30,-34l-55 -71c-12,-13 -10,-11 -16,-29 -16,10 -33,50 -46,65l-122 138c-14,20 -57,61 -80,71l-21 15c-16,16 2,16 -21,21z"/>
    <path class="fil0" d="M1551 78c-28,5 -56,4 -78,9 -38,8 -36,-12 -73,7 -39,20 -84,22 -128,45 -64,34 -39,13 -110,64 -39,28 -62,45 -95,78 -23,22 -19,1 -88,86 -7,9 -14,12 -21,21l-47 83c-9,21 -13,44 -25,63 -14,24 -14,36 -22,64 -9,31 -34,183 -35,225 -1,35 7,65 3,76 -9,28 4,81 17,108 6,12 3,17 12,31 8,11 3,-1 9,12 1,4 4,12 6,17 4,11 9,20 13,30 20,46 64,131 94,166 12,12 35,24 47,39 9,10 7,16 20,24 4,3 65,28 88,43 39,25 67,41 116,57 22,7 47,8 69,16 35,13 107,34 145,30 35,-4 43,-8 73,-15 23,-5 53,-3 77,-8 77,-19 134,-29 201,-59 23,-10 39,-14 61,-26 21,-11 34,-24 55,-31 34,-12 34,-16 54,-34 8,-7 19,-11 25,-18 10,-13 -1,-9 20,-23 42,-28 51,-55 61,-69 7,-8 14,-11 20,-23 5,-9 8,-22 12,-32 20,-42 60,-104 69,-147 10,-50 -1,-116 -1,-167 0,-62 3,-106 -5,-169 -3,-29 -4,-44 -14,-71 -3,-6 -4,-9 -6,-15 -4,-14 0,-3 -8,-14 -9,-12 -68,-194 -87,-216 -12,-14 -7,-14 -20,-24 -45,-32 -11,-1 -46,-41 -15,-18 -75,-51 -102,-71 -10,-8 -15,-14 -23,-20 -14,-10 -43,-22 -60,-27 -27,-9 -34,-18 -57,-29 -42,-20 -179,-53 -216,-45z"/>
    <path class="fil0" d="M26 -1103l0 845c23,-4 22,-14 36,-23 15,-8 27,-5 45,-18 23,-17 56,-68 138,-108 43,-21 99,-73 139,-108 10,-9 23,-18 33,-27 13,-10 22,-20 34,-30l310 -187c117,-68 164,-127 289,-207 12,-8 23,-14 36,-24 7,-4 11,-9 17,-13 6,-5 14,-7 22,-12 26,-12 52,-40 70,-56 38,-32 274,-176 305,-192 112,-59 210,-122 309,-187 17,-12 18,-15 29,-31 9,-15 92,-67 108,-79 67,-45 248,-122 332,-165 27,-13 57,-29 83,-40 29,-13 73,-27 85,-42l-1320 0c-3,18 0,4 -5,14l-16 24c-12,16 -62,68 -78,92 -26,40 -85,96 -122,133 0,0 -1,1 -2,1l-11 12c-31,31 -80,61 -118,84l-49 34c-7,5 -8,7 -17,13l-189 110c-1,0 -1,1 -2,1l-54 37c-36,27 -64,43 -104,63 -6,3 -12,6 -17,9l-29 15c-7,3 -4,2 -8,4l-19 11c-6,3 -11,7 -18,10 -16,7 -34,11 -56,15 -6,1 -6,1 -12,2l-77 6c-49,0 -60,7 -97,14z"/>
    <path class="fil0" d="M3626 2975l0 -1580c-30,12 -42,31 -62,53l-53 60c-21,23 -40,30 -66,48 -13,9 -15,14 -32,25 -13,8 -21,12 -32,20 -21,16 -43,32 -64,49 -59,47 -63,59 -122,106l-252 197c-12,11 -23,17 -32,25 -35,30 -58,45 -92,75 -64,58 -112,72 -176,158 -18,24 -25,55 -21,92 3,27 8,16 19,39 40,86 76,96 118,162 8,11 14,17 24,32 22,32 8,21 51,63l29 28c36,31 26,23 57,55 46,48 111,132 151,187 37,50 21,44 70,99 20,22 52,75 71,96 15,18 36,37 54,56 52,59 161,26 170,13 6,-17 -8,-12 12,-28l99 -78c21,-13 54,-19 69,-40 10,-13 -3,-3 10,-12z"/>
    <path class="fil2" d="M26 -27l0 167c22,-11 4,-10 22,-20 18,-10 37,-14 52,-22l12 -8c3,-3 6,-5 9,-8l84 -66c15,-12 27,-23 42,-35l259 -187c15,-9 26,-22 40,-33 46,-37 88,-75 135,-109 3,-2 6,-4 10,-7l44 -33c4,-4 6,-6 10,-9l160 -121c8,-7 12,-9 20,-15l12 -9c0,0 8,-5 10,-6 9,-6 15,-10 22,-15 9,-5 15,-8 23,-14l46 -27c15,-11 34,-17 49,-29l64 -44c16,-8 37,-17 52,-26 8,-5 14,-9 22,-14l88 -62c5,-3 17,-9 24,-13 30,-18 60,-37 85,-62l38 -28c1,0 2,-1 2,-1l26 -18c9,-7 14,-9 22,-15 36,-29 21,-24 65,-47 16,-9 29,-24 44,-33l101 -73c64,-33 37,-13 100,-60 13,-9 28,-22 42,-31l48 -28c10,-4 17,-6 27,-10l75 -39c38,-21 70,-53 110,-73 28,-15 40,-29 57,-40l67 -43c5,-4 6,-5 11,-9 25,-20 84,-53 114,-73 35,-23 52,-27 89,-57l42 -32c19,-17 18,-19 44,-31 14,-7 31,-20 45,-30 16,-11 29,-21 45,-31 30,-20 29,-17 46,-27l47 -29c39,-22 59,-43 85,-63 15,-10 39,-19 45,-32l-177 0c-3,3 -5,6 -8,7l-9 5c0,0 -1,1 -2,1 -9,6 -9,8 -19,14 -36,21 -35,37 -56,48 -25,12 -37,27 -67,40 -15,6 -25,12 -37,23 -1,0 -2,1 -2,1 -1,1 -1,1 -2,2 -18,16 -41,26 -61,42l-62 44c-8,4 -14,8 -21,13 -27,18 -61,30 -86,51l-41 28c-22,11 -44,21 -62,38l-95 69c-26,17 -48,25 -74,46 -19,16 -41,27 -63,40l-155 104c-4,3 -7,4 -11,6l-22 14c-28,11 -19,3 -49,22l-59 37c-19,10 -26,19 -44,30 -10,6 -14,9 -23,14l-101 72c-33,21 -63,42 -98,58l-58 29c-30,13 -37,26 -60,44l-64 43c-29,19 -49,38 -82,54l-78 43c-1,0 -5,3 -6,3 -3,2 -5,4 -6,4l-111 76c-85,52 -100,60 -179,121l-117 73c-46,25 -42,29 -71,49l-120 88c-10,14 -1,8 -17,18 -11,8 -10,8 -19,15l-102 71c-13,9 -24,22 -38,33 -3,3 -5,5 -8,8l-31 29c-13,9 -26,15 -38,26 -31,32 -76,53 -113,76 -9,6 -2,-3 -9,8z"/>
    <path class="fil3" d="M26 1809l0 33c23,-5 5,-5 21,-21l21 -15c23,-10 66,-51 80,-71l122 -138c13,-15 30,-55 46,-65 6,18 4,16 16,29l55 71c14,19 17,12 30,34 10,17 30,39 52,52 80,46 109,104 157,136 17,12 7,7 16,23 25,11 11,-1 25,18 7,11 56,42 69,58 8,10 14,14 23,21 24,20 98,108 149,147l45 39c9,10 12,11 23,20l41 42c21,22 6,11 42,45 8,8 10,12 19,21 38,40 88,67 118,92 30,26 91,73 111,98 10,12 8,13 21,23 21,15 8,5 7,26 7,7 10,6 16,10l-54 47c-23,21 -24,26 -47,50l-62 68c-14,18 -31,56 -54,76 -36,30 -35,44 -44,52l-46 51c-8,10 -8,8 -15,19 -29,49 -8,17 -44,52 -29,29 -33,40 -59,72 -39,49 -25,31 -62,64 -13,12 -16,22 -32,35l-119 107c-5,4 -4,4 -8,9 -2,1 -4,4 -5,5 -1,0 -1,1 -2,1 0,1 -1,2 -1,2 -37,41 -75,76 -117,110 -33,26 -22,19 -50,47l-51 49c-17,19 -34,22 -56,40 -14,13 -19,17 -36,27 -14,9 -23,18 -36,28l-42 20c-7,-2 -28,-30 -41,-40 -3,-2 -3,-2 -6,-4l-4 -3c-40,-32 -59,-42 -93,-70 -8,-7 -11,-10 -18,-15 -11,-9 -8,-10 -16,-18 -31,-28 -57,-24 -73,-56 -7,-13 -17,-27 -32,-35l0 266 564 0c9,-10 19,-10 33,-19 20,-12 17,-18 27,-26 7,-6 7,-4 15,-12 28,-27 17,-29 35,-45 11,-10 16,-20 27,-27l107 -76c39,-26 41,-22 74,-59 15,-17 27,-24 43,-37 1,-1 2,-1 2,-2l56 -47c55,-58 88,-92 150,-140 24,-17 20,-18 42,-38 7,-6 7,-8 13,-14 18,-18 39,-31 55,-48 16,-16 31,-46 48,-59l50 -53c9,-15 14,-20 23,-31 51,-68 33,-33 52,-54l26 -26c-1,-10 -5,-16 -9,-27 -29,-9 -9,15 -39,-14 -3,-4 -5,-4 -9,-8 -16,-11 -28,-17 -47,-25 9,-27 40,-25 37,-53 -13,-18 -28,-11 -47,-20 18,-12 37,-23 36,-49l-39 -17c8,-9 15,-14 21,-24 2,-22 -4,-39 -19,-51 -16,-12 -40,-41 -67,-66 -10,-9 -26,-18 -36,-27 -7,-6 -2,-3 -8,-8l-27 -24c-10,-8 -25,-18 -36,-27 -13,-9 -28,-18 -39,-28l-68 -61c-15,-16 -4,-7 -12,-22 -7,-16 -10,-4 -33,-30l-49 -47c-11,-10 -23,-23 -35,-32 -58,-46 -77,-73 -124,-116l-11 -10c-11,-12 -17,-24 -30,-33 -30,-21 -10,-4 -35,-32 -11,-12 -23,-17 -35,-28 -51,-43 -25,-34 -67,-63 -19,-14 -47,-45 -65,-64l-36 -32c-22,-21 -66,-43 -77,-53 -8,-7 -8,-12 -14,-19l-114 -145c-4,-8 -6,-49 -47,0l-35 59c-8,12 -12,10 -20,20 -4,5 -9,15 -15,22 -27,36 -25,33 -53,59l-76 78c-9,9 -5,10 -19,18 -7,4 -19,8 -25,12 -9,6 -7,9 -19,16z"/>
    <path class="fil0" d="M3626 -172l0 -18c-72,-13 -68,-46 -113,-74 -11,-7 -15,-13 -25,-21 -36,-30 -5,9 -75,-65 -46,-49 -37,-88 -39,-95 -2,-11 -9,-23 -14,-32 -21,-37 -36,-110 -17,-159l61 28c27,18 34,31 71,48l53 38c6,7 54,94 98,80l0 -15c-38,-13 -47,-23 -68,-55 -30,-48 -63,-53 -98,-82 -16,-13 -11,-17 -33,-27 -31,-14 -59,-18 -81,-39 0,-18 5,-61 9,-78 17,-82 22,-104 61,-188l51 -120c12,-25 9,-36 26,-58 15,-19 13,-37 23,-59 11,-26 17,-29 25,-62 5,-24 13,-41 18,-65 14,-69 13,-79 -14,-139 -8,-18 -15,-45 -24,-59 -6,-9 -12,-14 -18,-25 -9,-17 -3,-11 -18,-23 -15,-11 -10,-14 -20,-23 -11,-9 -76,-35 -89,-36 -44,-4 -109,15 -142,29 -25,11 -45,26 -68,37 -7,3 0,1 -13,2 -26,2 -60,33 -74,50 -12,15 -23,38 -30,53 -5,9 -5,22 -10,34 -3,9 -7,17 -12,27 -11,19 -18,35 -29,55 -10,20 -17,38 -25,61 -4,12 -6,24 -10,34 -5,10 -9,14 -13,27 -19,60 -18,75 -4,136 7,29 36,98 53,113 16,15 33,24 61,19 20,-3 47,-14 60,-24 7,18 18,35 44,24 26,-11 52,-55 61,-80 18,-46 54,-64 59,-152 1,-23 4,-48 -11,-60 -17,-14 -29,-16 -54,-15 -8,-32 -56,-48 -94,-42 2,-7 4,-12 6,-18 4,-8 20,-21 31,-39 23,-36 62,-89 56,-133 -3,-20 -7,-20 -21,-28 -12,-7 -11,-11 -17,-28 40,-25 84,-50 139,-57 65,-8 61,-3 115,18 18,7 19,6 26,21 15,32 9,-1 25,25 23,38 17,24 34,66 29,75 39,69 18,158 -3,14 -8,21 -11,36 -9,37 -12,41 -27,72 -5,11 -8,26 -12,38 -5,16 -9,17 -17,30 -19,31 -51,130 -71,172 -56,111 -50,140 -74,263 -49,-24 -55,-37 -119,-56 -35,-10 -105,-33 -137,-36 -4,-33 -8,-32 -26,-54 -44,-59 -82,-43 -129,-58 -13,-4 -28,-9 -41,-12 -45,-12 -37,-15 -90,-15 11,-31 42,-18 49,-65 4,-25 4,-22 -4,-45 -17,-50 -34,-43 -70,-73 -7,-6 -7,-7 -15,-12 -24,-16 -47,-11 -79,-31 -19,-12 -77,-3 -101,2 -33,6 -48,19 -61,48 -12,27 -18,36 5,90 8,18 29,59 38,71 -10,13 -17,10 -27,32 -7,16 0,34 5,48 31,98 166,90 224,116 54,23 120,34 175,55 34,12 46,20 87,26 41,6 63,18 97,-4 12,3 7,7 21,5 9,-21 -7,-13 -9,-20 -1,-1 -2,-1 -3,-1 11,-62 -49,-57 -52,-80 12,-7 119,26 140,33 61,18 72,35 120,57 1,32 -9,49 -5,92 7,67 8,39 18,82 11,45 28,100 60,136 60,68 38,35 80,70 9,8 14,15 27,23 44,27 60,78 123,75z"/>
    <path class="fil1" d="M3626 3033l0 -58c-13,9 0,-1 -10,12 -15,21 -48,27 -69,40l-99 78c-20,16 -6,11 -12,28 -9,13 -118,46 -170,-13 -18,-19 -39,-38 -54,-56 -19,-21 -51,-74 -71,-96 -49,-55 -33,-49 -70,-99 -40,-55 -105,-139 -151,-187 -31,-32 -21,-24 -57,-55l-29 -28c-43,-42 -29,-31 -51,-63 -10,-15 -16,-21 -24,-32 -42,-66 -78,-76 -118,-162 -11,-23 -16,-12 -19,-39 -4,-37 3,-68 21,-92 64,-86 112,-100 176,-158 34,-30 57,-45 92,-75 9,-8 20,-14 32,-25l252 -197c59,-47 63,-59 122,-106 21,-17 43,-33 64,-49 11,-8 19,-12 32,-20 17,-11 19,-16 32,-25 26,-18 45,-25 66,-48l53 -60c20,-22 32,-41 62,-53l0 -52c-28,18 -15,18 -51,36 -12,5 -9,5 -17,13 -13,12 -19,13 -35,22l-94 83c-50,49 -22,31 -88,84 -12,9 -23,14 -37,23 -29,20 -103,92 -132,101 -37,12 -35,22 -64,53l-69 48c-27,18 -41,47 -92,82 -14,10 -23,12 -36,23 -55,45 -76,56 -123,110 -59,68 -54,41 -108,96 -5,5 -11,9 -16,15 -15,19 9,4 -31,29l-106 70c-52,48 -46,71 -64,110 -10,22 -14,16 -9,48 3,17 9,27 18,38 12,13 11,23 19,42 8,20 36,47 53,63 26,24 18,34 47,70l116 143c16,32 23,22 42,49 18,24 34,41 52,64 10,12 12,22 22,35 48,57 94,101 131,162 33,54 61,68 79,94 10,14 13,24 23,38 9,13 17,20 29,31 9,9 15,20 27,31 -2,23 -16,12 9,32 16,12 15,12 36,21 14,6 32,36 79,12 58,-30 55,-24 99,-69 14,-15 53,-28 68,-41 12,-10 20,-16 30,-27 50,-51 31,-18 59,-55 21,-29 32,-27 63,-46 16,-11 23,-28 71,-43z"/>
    <path class="fil0" d="M26 -1400l0 297c37,-7 48,-14 97,-14l77 -6c6,-1 6,-1 12,-2 22,-4 40,-8 56,-15 7,-3 12,-7 18,-10l19 -11c4,-2 1,-1 8,-4l29 -15c5,-3 11,-6 17,-9 40,-20 68,-36 104,-63l54 -37c1,0 1,-1 2,-1l189 -110c9,-6 10,-8 17,-13l49 -34c38,-23 87,-53 118,-84l11 -12c1,0 2,-1 2,-1 37,-37 96,-93 122,-133 16,-24 66,-76 78,-92l16 -24c5,-10 2,4 5,-14l-417 0c-5,14 -1,5 -9,15 -16,20 -10,11 -25,24l-18 16c-39,33 -114,84 -158,115 -31,21 -41,35 -77,57 0,1 -1,1 -2,2l-210 126 -81 20c-30,8 -61,15 -89,27 -14,6 7,1 -14,5z"/>
    <path class="fil0" d="M26 -1400c21,-4 0,1 14,-5 28,-12 59,-19 89,-27l81 -20 210 -126c1,-1 2,-1 2,-2 36,-22 46,-36 77,-57 44,-31 119,-82 158,-115l18 -16c15,-13 9,-4 25,-24 8,-10 4,-1 9,-15l-683 0 0 407z"/>
    <path class="fil0" d="M3626 3275l0 -242c-48,15 -55,32 -71,43 -31,19 -42,17 -63,46 -28,37 -9,4 -59,55 -10,11 -18,17 -30,27 -15,13 -54,26 -68,41 -44,45 -41,39 -99,69 -47,24 -65,-6 -79,-12 -21,-9 -20,-9 -36,-21 -25,-20 -11,-9 -9,-32 -12,-11 -18,-22 -27,-31 -12,-11 -20,-18 -29,-31 -10,-14 -13,-24 -23,-38 -18,-26 -46,-40 -79,-94 -37,-61 -83,-105 -131,-162 -10,-13 -12,-23 -22,-35 -18,-23 -34,-40 -52,-64 -19,-27 -26,-17 -42,-49l-116 -143c-29,-36 -21,-46 -47,-70 -17,-16 -45,-43 -53,-63 -8,-19 -7,-29 -19,-42 -9,-11 -15,-21 -18,-38 -5,-32 -1,-26 9,-48 18,-39 12,-62 64,-110l106 -70c40,-25 16,-10 31,-29 5,-6 11,-10 16,-15 54,-55 49,-28 108,-96 47,-54 68,-65 123,-110 13,-11 22,-13 36,-23 51,-35 65,-64 92,-82l69 -48c29,-31 27,-41 64,-53 29,-9 103,-81 132,-101 14,-9 25,-14 37,-23 66,-53 38,-35 88,-84l94 -83c16,-9 22,-10 35,-22 8,-8 5,-8 17,-13 36,-18 23,-18 51,-36l0 -22 -75 50c-19,19 -17,13 -38,26l-101 89c-25,28 -67,71 -99,91 -32,19 -78,57 -108,82 -61,51 -40,15 -77,49 -9,8 -8,7 -17,17 -28,36 -94,63 -121,99 -22,31 -107,78 -142,111l-80 80c-5,6 -8,10 -14,16 -7,8 -24,21 -35,28 -35,22 -43,37 -69,58 -18,14 -7,15 -33,31 -14,9 -26,16 -37,26 -15,11 -24,13 -40,24 -37,24 -68,61 -85,104 -24,61 -37,85 4,141 20,27 3,41 64,97 34,32 16,20 39,54l112 141c11,14 13,24 27,37 11,10 80,91 86,103 20,41 114,127 141,176 24,42 34,45 54,73 5,7 23,43 40,56l46 48c23,25 -20,16 47,73 6,5 12,10 20,13 28,13 52,50 118,13 0,1 1,2 1,2l2 4c24,47 16,7 31,43 8,19 19,33 32,47 39,42 86,-5 116,-18 88,-35 75,-59 137,-103 11,-7 39,-22 54,-27z"/>
    <path class="fil1" d="M3027 -942c40,-35 21,-75 51,-70 8,22 -15,57 -25,72 18,7 70,-23 79,-37 7,-10 5,-9 12,-18 26,-32 35,-67 50,-104 8,-21 8,-5 17,-45 8,-32 -4,-83 -25,-93 -12,15 -9,67 -33,54 -1,-1 -1,-3 -1,-3 0,1 -6,7 4,-24 4,-11 7,-22 7,-33 -36,-18 -49,17 -80,9 -14,-29 32,-111 43,-137 7,-18 19,-49 28,-64 19,-30 26,-36 6,-73 -25,1 -70,37 -83,75 -23,71 -60,119 -83,185 -4,12 -7,30 -12,41 -8,17 -11,13 -16,37 -7,34 -16,55 -7,86 4,14 6,31 10,44 12,30 32,91 58,98z"/>
    <path class="fil1" d="M3626 -190l0 -252c-44,14 -92,-73 -98,-80l-53 -38c-37,-17 -44,-30 -71,-48l-61 -28c-19,49 -4,122 17,159 5,9 12,21 14,32 2,7 -7,46 39,95 70,74 39,35 75,65 10,8 14,14 25,21 45,28 41,61 113,74z"/>
    <path class="fil1" d="M3046 -746c8,-32 -5,-51 -30,-74 -22,-20 -47,-26 -80,-29 -33,-4 -105,-35 -130,-34 -19,0 -29,7 -42,-7 -8,-28 19,-48 39,-56 -5,-19 -35,-41 -48,-53 -28,-22 -36,-16 -74,-26 -24,-7 -50,-23 -78,-20 -36,4 -53,10 -92,-2 5,39 41,113 65,143 17,22 114,50 147,63 49,19 96,43 151,56 28,6 153,41 172,39z"/>
    <path class="fil1" d="M2740 731c2,16 18,54 24,77 10,36 9,50 23,84 22,52 36,107 41,173 11,-6 73,-74 90,-90 24,-24 18,-27 34,-59 8,-17 22,-48 26,-67 7,-41 -23,-66 -35,-79 -9,-8 -11,-18 -40,-30 -4,-2 -72,-14 -77,-15 -28,-2 -63,-5 -86,6z"/>
    <path class="fil0" d="M159 3207c12,-2 31,-22 40,-30 14,-13 26,-23 38,-36 16,-17 64,-59 35,-93 -38,-10 -51,20 -74,33 -11,-40 -98,-60 -94,6 1,21 19,45 26,62 8,18 15,48 29,58z"/>
    <path class="fil1" d="M125 3069c-5,43 29,67 37,109 17,-7 100,-77 99,-113 -32,1 -50,41 -57,51l-19 -1c-6,-25 1,-27 -16,-41 -14,-11 -27,-16 -44,-5z"/>
    <path class="fil4" d="M329 3241c0,0 0,0 0,0z"/>
   </g>
  </g>
  <polygon class="fil5" points="0,0 3600,0 3600,3600 0,3600 "/>
 </g>
</svg>
