<?xml version="1.0" encoding="UTF-8"?>
<!DOCTYPE svg PUBLIC "-//W3C//DTD SVG 1.1//EN" "http://www.w3.org/Graphics/SVG/1.1/DTD/svg11.dtd">
<!-- Creator: CorelDRAW X7 -->
<svg xmlns="http://www.w3.org/2000/svg" xml:space="preserve" width="3.6in" height="3.6in" version="1.1" style="shape-rendering:geometricPrecision; text-rendering:geometricPrecision; image-rendering:optimizeQuality; fill-rule:evenodd; clip-rule:evenodd"
viewBox="0 0 3600 3600"
 xmlns:xlink="http://www.w3.org/1999/xlink">
 <defs>
  <style type="text/css">
   <![CDATA[
    .fil0 {fill:#FEFEFE}
    .fil1 {fill:#DAC37B}
    .fil2 {fill:#151515}
   ]]>
  </style>
 </defs>
 <g id="Layer_x0020_1">
  <metadata id="CorelCorpID_0Corel-Layer"/>
  <path class="fil0" d="M1299 2028c-16,-21 -55,-106 -68,-137 -34,-78 -135,-277 -161,-359 -26,-87 -8,-50 -12,-72 -16,-9 -6,-1 -18,1l-23 3c-48,16 -47,34 -103,-6 -16,-11 -24,-28 -37,-24 -5,14 17,14 43,84 13,35 19,66 32,102 63,162 126,323 202,478 15,31 37,64 47,93 -41,2 -83,1 -123,2 -157,4 -75,9 -111,18 -18,4 -375,-11 -401,-2 -13,4 -3,-2 -11,6 11,16 55,7 75,7 198,4 402,-6 599,8 86,177 164,7 171,3 7,-3 435,4 450,12 -16,10 -68,-4 -77,15 8,6 -3,2 10,4 8,2 7,1 14,1 66,-1 316,-9 302,84 -5,33 -45,51 -76,66 -67,32 -162,40 -246,36 -62,-3 -293,-21 -201,-106 14,-13 24,-20 39,-31 20,-16 13,-14 46,-9 67,11 109,47 156,51 38,4 89,-15 95,-46 -19,-19 -103,-19 -123,4 13,14 17,7 44,2 23,-4 37,-4 60,-2 -15,23 -52,30 -80,26 -27,-5 -55,-20 -75,-31 17,-7 8,12 22,-9 -18,-19 -91,-36 -126,-43 -24,-5 -54,-9 -78,-10 -41,-1 -63,-6 -62,35 28,13 72,17 110,15 -12,16 -29,25 -42,39 -130,141 326,162 475,93 29,-13 76,-44 81,-75 16,-81 -129,-108 -202,-105 9,-7 -9,-1 13,-6 45,-9 232,16 251,7 -4,-13 -16,-13 -31,-14l-261 -13c-20,0 -22,6 -29,-13 13,-8 386,-3 411,5 10,26 4,19 19,41 37,53 -21,42 99,87 72,28 112,-56 115,-121 115,0 227,15 339,17l223 22c20,3 58,13 75,4 -8,-19 -44,-16 -65,-18l-245 -26c-51,-4 -110,-9 -162,-11 -50,-3 -117,-3 -166,-10 -7,-49 -43,-125 -61,-172l11 -17c2,-4 5,-22 5,-28 2,-20 3,-39 4,-60 5,-89 13,-294 -20,-358l-158 15 41 132c-17,-20 -4,-34 -28,-40 -8,17 32,99 43,127 14,39 137,359 140,383l-2 18c-22,-8 -22,-42 -30,-67 -36,-121 -81,-240 -125,-357 -79,-205 -49,-124 -94,-77 -17,19 -49,16 -73,16 -20,-7 -5,-47 -84,-82 -22,-10 -40,-15 -61,-23l-49 -22c-1,0 -3,-1 -4,-2 -11,-7 -3,-1 -9,-7 53,6 96,20 143,28l-114 -167c-20,-27 -24,-6 -14,9 16,24 39,44 50,72 -25,-1 -68,-16 -100,-21 -104,-16 -246,-14 -340,-36l-19 -457c0,-19 5,-50 -8,-62 -17,11 -7,45 -6,67l6 252c4,70 -51,40 -110,228 -47,150 -68,322 -113,475l-14 46c-1,1 -1,2 -2,3 0,1 -1,3 -2,3 -6,12 -2,6 -6,9z"/>
  <path class="fil1" d="M2129 1108c0,0 26,-6 -6,-4 -1,0 -3,0 -4,0 -16,3 -10,0 -20,9 5,12 -2,8 13,18 16,12 44,3 64,7 -12,6 -52,-2 -73,10 -4,54 -8,99 -12,152 -6,95 -5,100 39,129 17,12 88,62 105,65 30,5 139,16 158,-1 9,-7 11,1 15,-43l32 -258c14,-112 24,-3 37,-74 -18,-13 -35,-9 -26,0 0,-21 1,-20 -5,-35 -13,7 -23,2 -15,25 -17,-11 -3,5 -13,-20l-7 -14 -14 23c-2,8 -1,21 -1,29 1,-1 10,6 3,-14 -5,-13 -2,-6 -12,-11 -11,-6 -8,-2 -17,-5 -1,0 -2,0 -4,-1l-15 -4c-2,0 -14,2 -16,2 -39,7 -38,-7 -50,20l8 7c1,1 3,2 4,3 20,10 9,-8 16,5 -12,9 -67,5 -88,9 0,-1 0,-4 0,-3 -1,1 -1,-3 -1,-4l-4 -32c-13,5 -25,-8 -25,40 0,-1 15,-63 -30,-43 -13,6 -10,-18 -10,18l-19 -60c-10,-23 -2,-10 -17,-20 -19,28 10,34 10,75z"/>
  <path class="fil2" d="M1423 2189l402 -2c-7,-36 -44,-86 -61,-121 -19,-39 -41,-78 -61,-115 -41,-76 -75,-155 -122,-228 -9,11 -58,192 -71,230l-87 236z"/>
  <path class="fil0" d="M2244 2671c-39,-30 -118,-88 -74,-154 28,-42 110,-71 174,-84 138,-28 325,-5 449,34 -22,13 -48,16 -68,32 -64,53 -48,86 -178,77 -20,-2 -39,-6 -52,6 12,14 44,9 64,10l-17 5c-13,7 -5,-4 -12,10 16,10 60,6 67,4 12,-5 0,-14 23,-21 55,-18 35,3 113,-74 23,-22 89,-38 99,-37 -25,12 -52,17 -71,35 -25,24 -25,35 -31,61 -4,16 -14,22 -37,27 -21,5 -8,2 -15,-1 -14,-6 17,-22 -51,10 -21,10 -31,7 -34,28 27,8 -12,-7 32,1 23,5 5,2 41,-10 19,-7 65,-24 84,-28 1,-60 13,-78 63,-96 60,-22 71,-12 122,15 186,101 -1,140 -23,152 93,3 140,-48 119,-97 -17,-40 -85,-70 -131,-93 31,-13 79,-21 117,-31 23,-6 96,-16 108,-41 -16,-9 -37,6 -57,12 -35,11 -187,49 -206,45 29,-9 202,-63 210,-72 -10,-14 -4,-10 -25,-4l-172 50c-33,11 -36,19 -70,8 -166,-50 -464,-79 -606,20 -79,55 -66,108 -14,172 16,19 28,34 59,29z"/>
  <path class="fil0" d="M880 1238c6,4 -6,14 38,-4 29,-11 95,-30 124,-21 -3,21 -9,18 -47,34 -19,8 -45,14 -61,22 36,24 136,29 163,60 -29,15 -100,-2 -132,-9 -20,-4 -36,-8 -50,4 13,19 55,17 78,20 28,4 56,9 67,33l-78 -7c-22,0 -12,-4 -24,4 10,28 92,11 128,30 -11,7 -35,12 -53,16 -46,10 -46,0 -58,20l37 0c39,-8 89,-11 103,-36 -11,-21 -11,-9 -29,-23 -7,-6 -19,-22 -21,-28 90,-7 40,11 83,26l8 1c1,0 2,0 3,0 7,-15 -14,-21 -34,-53 -18,-28 -21,-26 -34,-66 -6,-19 -3,-39 -18,-46 -13,16 4,52 9,72 -22,-12 -38,-21 -49,-40 55,-33 39,-73 -97,-35 -19,6 -48,10 -56,26z"/>
  <path class="fil0" d="M1766 1294c10,21 28,8 77,25l13 72 -89 -7c-10,-49 1,-33 -15,-41 -9,14 -5,38 -3,55 27,11 95,13 128,12l-18 -104c-12,-3 -29,-6 -45,-10l-36 -6c-12,1 -5,0 -12,4z"/>
  <path class="fil0" d="M2235 1123c19,-7 4,-3 13,-24l8 24c29,-3 2,-8 33,2l-6 -33c20,-3 9,3 17,-10 -8,-3 -3,-1 -12,-2l-10 -1c-19,-4 -2,-7 -21,7 -7,-29 -6,-21 -34,-25l12 62z"/>
 </g>
</svg>
