<?xml version="1.0" encoding="UTF-8"?>
<!DOCTYPE svg PUBLIC "-//W3C//DTD SVG 1.1//EN" "http://www.w3.org/Graphics/SVG/1.1/DTD/svg11.dtd">
<!-- Creator: CorelDRAW X7 -->
<svg xmlns="http://www.w3.org/2000/svg" xml:space="preserve" width="5.20833in" height="5.20833in" version="1.1" style="shape-rendering:geometricPrecision; text-rendering:geometricPrecision; image-rendering:optimizeQuality; fill-rule:evenodd; clip-rule:evenodd"
viewBox="0 0 5208 5208"
 xmlns:xlink="http://www.w3.org/1999/xlink">
 <defs>
  <style type="text/css">
   <![CDATA[
    .fil0 {fill:#91D8F7}
   ]]>
  </style>
 </defs>
 <g id="Layer_x0020_1">
  <metadata id="CorelCorpID_0Corel-Layer"/>
  <path class="fil0" d="M4248 2823l-2429 1331c-137,78 -439,257 -414,-186l0 -2771c17,-369 231,-277 407,-174l2441 1352c237,127 315,286 -5,448zm872 -224c0,-1392 -1129,-2521 -2521,-2521 -1392,0 -2521,1129 -2521,2521 0,1392 1129,2521 2521,2521 1392,0 2521,-1129 2521,-2521z"/>
  <path class="fil0" d="M-10953 858l2555 0c334,0 608,273 608,608l0 2554c0,335 -274,609 -608,609l-2555 0c-334,0 -608,-274 -608,-609l0 -2554c0,-335 274,-608 608,-608zm673 1309l0 1235c-11,198 123,118 184,83l1083 -593c143,-72 108,-143 2,-199l-1088 -603c-78,-46 -174,-87 -181,77z"/>
 </g>
</svg>
