<?xml version="1.0" encoding="utf-8"?>
<!-- Generator: Adobe Illustrator 27.5.0, SVG Export Plug-In . SVG Version: 6.00 Build 0)  -->
<svg version="1.1" xmlns="http://www.w3.org/2000/svg" xmlns:xlink="http://www.w3.org/1999/xlink" x="0px" y="0px"
	 viewBox="0 0 3710 3710" style="enable-background:new 0 0 3710 3710;" xml:space="preserve">
<g id="Background">
	<g>
		<g>
			<rect style="fill:transparent;" width="3710" height="3710"/>
		</g>
	</g>
</g>
<g id="Illustration">
	<g>
		<path style="fill:transparent;" d="M2924.951,2863.078c-73.35,75.607-138.98,120.051-189.23,153.603
			c-490.073,327.226-1050.28,232.912-1223.482,200.675c-279.44-52.01-515.327-88.7-717.995-271.803
			c-460.524-416.065-438.125-1284.008-86.229-1821.66c41.725-63.75,393.089-584.58,954.508-657.969
			c13.731-1.795,23.977-2.817,32.951-3.767c86.85-9.195,625.044-57.728,1063.888,309.936
			c62.818,52.629,163.911,147.558,257.657,292.341C3359.796,1593.826,3360.881,2413.737,2924.951,2863.078z"/>
		<linearGradient id="SVGID_1_" gradientUnits="userSpaceOnUse" x1="3061.5874" y1="2291.5317" x2="1467.8939" y2="2139.7522">
			<stop  offset="0" style="stop-color:#FF9085"/>
			<stop  offset="0.2177" style="stop-color:#FE8991"/>
			<stop  offset="1" style="stop-color:#FB6FBB"/>
		</linearGradient>
		<path style="fill:url(#SVGID_1_);" d="M2589.243,1328.262c226.442,30.377,539.211,175.097,572.625,386.35
			c41.757,263.997-387.719,410.84-420.845,862.388c-15.087,205.655,67.68,261.304,6.899,365.652
			c-140.348,240.946-774.674,275.629-1131.453-48.294c-69.572-63.166-234.894-236.481-255.267-489.836
			C1316.325,1846.417,2002.942,1249.611,2589.243,1328.262z"/>
		
			<linearGradient id="SVGID_00000090273150754966514990000006216435175200340381_" gradientUnits="userSpaceOnUse" x1="1936.2258" y1="1103.5857" x2="646.0941" y2="2931.8474">
			<stop  offset="0" style="stop-color:#FFC444"/>
			<stop  offset="0.9964" style="stop-color:#F36F56"/>
		</linearGradient>
		<path style="fill:url(#SVGID_00000090273150754966514990000006216435175200340381_);" d="M1211.313,749.171
			c-165.174-64.951-603.178,359.449-524.332,641.616c58.101,207.928,354.574,187.286,407.047,407.047
			c48.282,202.205-182.983,302.32-151.78,551.928c23.126,184.994,180.569,373.295,351.854,400.148
			c162.29,25.443,253.917-107.078,586.424-372.552c533.833-426.213,645.312-362.197,772.699-593.323
			c130.64-237.027,207.108-655.816-34.495-924.48c-205.319-228.315-578.453-279.382-820.993-165.578
			c-223.279,104.767-313.802,338.901-427.744,303.56C1272.662,967.351,1305.512,786.213,1211.313,749.171z"/>
		<g>
			
				<linearGradient id="SVGID_00000016075875311469563790000007172941292925191073_" gradientUnits="userSpaceOnUse" x1="2151.2568" y1="2572.2205" x2="1383.0396" y2="3730.6416">
				<stop  offset="0" style="stop-color:#444B8C"/>
				<stop  offset="0.9964" style="stop-color:#26264F"/>
			</linearGradient>
			<path style="fill:url(#SVGID_00000016075875311469563790000007172941292925191073_);" d="M2066.727,3211.906h-309.458
				c-16.833,0-30.479-13.646-30.479-30.479v-506.035h370.415v506.035C2097.205,3198.26,2083.56,3211.906,2066.727,3211.906z"/>
			
				<linearGradient id="SVGID_00000140708327009428128170000000377108004335866521_" gradientUnits="userSpaceOnUse" x1="1661.8373" y1="3436.1929" x2="1954.9696" y2="2525.6121">
				<stop  offset="0.0036" style="stop-color:#E38DDD"/>
				<stop  offset="1" style="stop-color:#9571F6"/>
			</linearGradient>
			<path style="fill:url(#SVGID_00000140708327009428128170000000377108004335866521_);" d="M2028.411,2906.167h-232.825
				c-21.373,0-38.699-17.326-38.699-38.699v-422.849h310.224v422.849C2067.11,2888.841,2049.784,2906.167,2028.411,2906.167z"/>
			<g>
				<defs>
					<path id="SVGID_00000163793113037817094900000012802593074030639496_" d="M1872.068,846.359l-303.734,31.94
						c-202.736,21.319-349.803,202.952-328.484,405.688l97.768,929.729c21.319,202.736,202.951,349.803,405.688,328.484
						l303.734-31.94c202.736-21.319,349.803-202.951,328.484-405.688l-97.768-929.729
						C2256.436,972.108,2074.804,825.04,1872.068,846.359z"/>
				</defs>
				
					<linearGradient id="SVGID_00000113346966742642774160000013001132415702058682_" gradientUnits="userSpaceOnUse" x1="2513.1179" y1="712.2097" x2="1339.6479" y2="2345.8613">
					<stop  offset="0.0036" style="stop-color:#E38DDD"/>
					<stop  offset="1" style="stop-color:#9571F6"/>
				</linearGradient>
				
					<use xlink:href="#SVGID_00000163793113037817094900000012802593074030639496_"  style="overflow:visible;fill:url(#SVGID_00000113346966742642774160000013001132415702058682_);"/>
				<clipPath id="SVGID_00000041271307409527054470000016411208372517166211_">
					<use xlink:href="#SVGID_00000163793113037817094900000012802593074030639496_"  style="overflow:visible;"/>
				</clipPath>
				<g style="clip-path:url(#SVGID_00000041271307409527054470000016411208372517166211_);">
					<g>
						
							<linearGradient id="SVGID_00000041974655454070964990000007705183551113418134_" gradientUnits="userSpaceOnUse" x1="1628.599" y1="1528.8647" x2="1012.9067" y2="2453.8635" gradientTransform="matrix(1.2188 -0.1282 0.1046 0.9945 213.6024 -33.0601)">
							<stop  offset="0" style="stop-color:#444B8C"/>
							<stop  offset="0.9964" style="stop-color:#26264F"/>
						</linearGradient>
						<path style="fill:url(#SVGID_00000041974655454070964990000007705183551113418134_);" d="M2693.731,1129.807
							c-167.538-30.56-337.949-47.359-508.838-50.653c-23.782-0.507-40.731,21.648-37.838,49.115l0,0
							c2.887,27.473,24.475,49.424,48.191,49.341c170.515-0.322,340.302,10.577,506.977,32.946
							c23.173,2.997,40.053-11.832,37.786-33.441l0,0C2737.739,1155.515,2717.063,1134.156,2693.731,1129.807z"/>
						
							<linearGradient id="SVGID_00000059295550573720240110000011259478976334743713_" gradientUnits="userSpaceOnUse" x1="1701.8167" y1="1577.608" x2="1086.1212" y2="2502.6116" gradientTransform="matrix(1.2188 -0.1282 0.1046 0.9945 213.6024 -33.0601)">
							<stop  offset="0" style="stop-color:#444B8C"/>
							<stop  offset="0.9964" style="stop-color:#26264F"/>
						</linearGradient>
						<path style="fill:url(#SVGID_00000059295550573720240110000011259478976334743713_);" d="M2708.784,1272.953
							c-166.011-16.04-335.322-22.377-505.538-19.264c-23.688,0.385-40.57,23.181-37.677,50.643l0,0
							c2.888,27.48,24.408,48.789,48.03,47.813c169.841-6.728,338.528-6.293,503.676,1.557c22.96,0.976,39.659-15.576,37.392-37.184
							l0,0C2752.398,1294.917,2731.905,1275.292,2708.784,1272.953z"/>
						
							<linearGradient id="SVGID_00000084489614820424732200000007126594226517608855_" gradientUnits="userSpaceOnUse" x1="1775.0474" y1="1626.3593" x2="1159.3485" y2="2551.3677" gradientTransform="matrix(1.2188 -0.1282 0.1046 0.9945 213.6024 -33.0601)">
							<stop  offset="0" style="stop-color:#444B8C"/>
							<stop  offset="0.9964" style="stop-color:#26264F"/>
						</linearGradient>
						<path style="fill:url(#SVGID_00000084489614820424732200000007126594226517608855_);" d="M2723.836,1416.1
							c-164.484-1.523-332.695,2.603-502.237,12.126c-23.594,1.28-40.41,24.705-37.516,52.172l0,0
							c2.887,27.472,24.341,48.149,47.869,46.285c169.167-13.138,336.754-23.166,500.375-29.833
							c22.748-1.04,39.266-19.319,36.999-40.927l0,0C2767.057,1434.319,2746.745,1416.418,2723.836,1416.1z"/>
						
							<linearGradient id="SVGID_00000136380949421134917340000016146315743418218422_" gradientUnits="userSpaceOnUse" x1="1848.2936" y1="1675.1193" x2="1232.593" y2="2600.1304" gradientTransform="matrix(1.2188 -0.1282 0.1046 0.9945 213.6024 -33.0601)">
							<stop  offset="0" style="stop-color:#444B8C"/>
							<stop  offset="0.9964" style="stop-color:#26264F"/>
						</linearGradient>
						<path style="fill:url(#SVGID_00000136380949421134917340000016146315743418218422_);" d="M2738.889,1559.246
							c-162.957,12.996-330.068,27.587-498.936,43.516c-23.5,2.172-40.25,26.231-37.356,53.7l0,0
							c2.887,27.466,24.275,47.519,47.709,44.755c168.493-19.546,334.98-40.038,497.074-61.222
							c22.537-3.052,38.872-23.067,36.605-44.67l0,0C2781.716,1573.721,2761.586,1557.546,2738.889,1559.246z"/>
						
							<linearGradient id="SVGID_00000129204563456195461270000015573315149397907590_" gradientUnits="userSpaceOnUse" x1="1921.5579" y1="1723.8906" x2="1305.8552" y2="2648.9048" gradientTransform="matrix(1.2188 -0.1282 0.1046 0.9945 213.6024 -33.0601)">
							<stop  offset="0" style="stop-color:#444B8C"/>
							<stop  offset="0.9964" style="stop-color:#26264F"/>
						</linearGradient>
						<path style="fill:url(#SVGID_00000129204563456195461270000015573315149397907590_);" d="M2753.942,1702.393
							c-161.43,27.514-327.441,52.568-495.635,74.905c-23.406,3.065-40.088,27.764-37.195,55.229l0,0
							c2.887,27.466,24.208,46.883,47.548,43.227c167.819-25.952,333.206-56.908,493.773-92.612
							c22.324-5.076,38.478-26.813,36.211-48.413l0,0C2796.375,1713.12,2776.427,1698.678,2753.942,1702.393z"/>
						
							<linearGradient id="SVGID_00000062155545554789750400000007113009515109700490_" gradientUnits="userSpaceOnUse" x1="1994.843" y1="1772.675" x2="1379.1378" y2="2697.6931" gradientTransform="matrix(1.2188 -0.1282 0.1046 0.9945 213.6024 -33.0601)">
							<stop  offset="0" style="stop-color:#444B8C"/>
							<stop  offset="0.9964" style="stop-color:#26264F"/>
						</linearGradient>
						<path style="fill:url(#SVGID_00000062155545554789750400000007113009515109700490_);" d="M2768.995,1845.539
							c-159.904,42.032-324.814,77.548-492.334,106.295c-23.312,3.959-39.928,29.286-37.034,56.757l0,0
							c2.886,27.46,24.141,46.248,47.387,41.698c167.145-32.361,331.432-73.779,490.472-124.001
							c22.112-7.093,38.084-30.555,35.818-52.156l0,0C2811.034,1852.524,2791.267,1839.806,2768.995,1845.539z"/>
						
							<linearGradient id="SVGID_00000091017063231654483720000001406940197739107207_" gradientUnits="userSpaceOnUse" x1="2068.1531" y1="1821.4756" x2="1452.4467" y2="2746.4956" gradientTransform="matrix(1.2188 -0.1282 0.1046 0.9945 213.6024 -33.0601)">
							<stop  offset="0" style="stop-color:#444B8C"/>
							<stop  offset="0.9964" style="stop-color:#26264F"/>
						</linearGradient>
						<path style="fill:url(#SVGID_00000091017063231654483720000001406940197739107207_);" d="M2784.048,1988.685
							c-158.377,56.552-322.188,102.53-489.033,137.684c-23.218,4.855-39.767,30.815-36.873,58.286l0,0
							c2.886,27.462,24.074,45.611,47.226,40.169c166.471-38.769,329.657-90.65,487.171-155.392
							c21.9-9.112,37.691-34.295,35.425-55.898l0,0C2825.693,1991.928,2806.108,1980.929,2784.048,1988.685z"/>
					</g>
					<g>
						
							<linearGradient id="SVGID_00000026154414026994169320000000241687973149274268_" gradientUnits="userSpaceOnUse" x1="1231.8361" y1="1264.7679" x2="616.1348" y2="2189.78" gradientTransform="matrix(1.2188 -0.1282 0.1046 0.9945 213.6024 -33.0601)">
							<stop  offset="0" style="stop-color:#444B8C"/>
							<stop  offset="0.9964" style="stop-color:#26264F"/>
						</linearGradient>
						<path style="fill:url(#SVGID_00000026154414026994169320000000241687973149274268_);" d="M2036.112,1079.692
							c-170.974,4.522-341.737,22.479-509.911,53.62c-23.395,4.358-39.939,30.638-37.029,58.324l0,0
							c2.914,27.693,24.218,46.681,47.652,42.701c168.415-28.854,339.178-46.811,509.911-53.62
							c23.753-0.984,40.634-23.989,37.729-51.68l0,0C2081.551,1101.349,2059.917,1079.084,2036.112,1079.692z"/>
						
							<linearGradient id="SVGID_00000007407361372325696500000013043719154533332908_" gradientUnits="userSpaceOnUse" x1="1314.532" y1="1319.8193" x2="698.8296" y2="2244.8335" gradientTransform="matrix(1.2188 -0.1282 0.1046 0.9945 213.6024 -33.0601)">
							<stop  offset="0" style="stop-color:#444B8C"/>
							<stop  offset="0.9964" style="stop-color:#26264F"/>
						</linearGradient>
						<path style="fill:url(#SVGID_00000007407361372325696500000013043719154533332908_);" d="M2054.944,1258.78
							c-170.547,8.578-341.311,26.535-509.911,53.62c-23.453,3.802-40.056,29.525-37.145,57.217l0,0
							c2.914,27.691,24.275,47.224,47.769,43.808c168.841-24.799,339.605-42.756,509.911-53.62
							c23.695-1.542,40.517-25.102,37.613-52.788l0,0C2100.266,1279.321,2078.69,1257.615,2054.944,1258.78z"/>
						
							<linearGradient id="SVGID_00000102520111529304823680000017544724049555058068_" gradientUnits="userSpaceOnUse" x1="1397.2283" y1="1374.8707" x2="781.5267" y2="2299.8833" gradientTransform="matrix(1.2188 -0.1282 0.1046 0.9945 213.6024 -33.0601)">
							<stop  offset="0" style="stop-color:#444B8C"/>
							<stop  offset="0.9964" style="stop-color:#26264F"/>
						</linearGradient>
						<path style="fill:url(#SVGID_00000102520111529304823680000017544724049555058068_);" d="M2073.777,1437.869
							c-170.121,12.633-340.884,30.59-509.911,53.62c-23.513,3.235-40.171,28.424-37.262,56.109l0,0
							c2.914,27.695,24.332,47.767,47.885,44.916c169.268-20.743,340.031-38.7,509.911-53.62
							c23.635-2.106,40.401-26.209,37.497-53.895l0,0C2118.983,1457.308,2097.464,1436.14,2073.777,1437.869z"/>
						
							<linearGradient id="SVGID_00000024715912209052712970000008911787418462769838_" gradientUnits="userSpaceOnUse" x1="1479.9237" y1="1429.9224" x2="864.223" y2="2354.9338" gradientTransform="matrix(1.2188 -0.1282 0.1046 0.9945 213.6024 -33.0601)">
							<stop  offset="0" style="stop-color:#444B8C"/>
							<stop  offset="0.9964" style="stop-color:#26264F"/>
						</linearGradient>
						<path style="fill:url(#SVGID_00000024715912209052712970000008911787418462769838_);" d="M2092.609,1616.958
							c-169.694,16.688-340.458,34.645-509.911,53.62c-23.572,2.676-40.289,27.31-37.378,55.002c0-0.001,0-0.001,0,0
							c2.913,27.684,24.389,48.313,48.001,46.021c169.694-16.689,340.458-34.645,509.912-53.62
							c23.575-2.675,40.285-27.305,37.38-55.001c0-0.001,0-0.001,0,0C2137.699,1635.292,2116.237,1614.662,2092.609,1616.958z"/>
						
							<linearGradient id="SVGID_00000129928411707272782330000009643978547971747763_" gradientUnits="userSpaceOnUse" x1="1562.6183" y1="1484.9733" x2="946.9163" y2="2409.9868" gradientTransform="matrix(1.2188 -0.1282 0.1046 0.9945 213.6024 -33.0601)">
							<stop  offset="0" style="stop-color:#444B8C"/>
							<stop  offset="0.9964" style="stop-color:#26264F"/>
						</linearGradient>
						<path style="fill:url(#SVGID_00000129928411707272782330000009643978547971747763_);" d="M2111.441,1796.046
							c-169.268,20.745-340.031,38.702-509.911,53.621c-23.631,2.112-40.405,26.2-37.495,53.895l0,0
							c2.913,27.681,24.447,48.859,48.118,47.129c170.12-12.633,340.884-30.589,509.911-53.62
							c23.516-3.237,40.168-28.419,37.263-56.108l0,0C2156.414,1813.268,2135.01,1793.193,2111.441,1796.046z"/>
						
							<linearGradient id="SVGID_00000078755570615209194550000016068131122039352251_" gradientUnits="userSpaceOnUse" x1="1645.3145" y1="1540.0237" x2="1029.6125" y2="2465.0369" gradientTransform="matrix(1.2188 -0.1282 0.1046 0.9945 213.6024 -33.0601)">
							<stop  offset="0" style="stop-color:#444B8C"/>
							<stop  offset="0.9964" style="stop-color:#26264F"/>
						</linearGradient>
						<path style="fill:url(#SVGID_00000078755570615209194550000016068131122039352251_);" d="M2130.274,1975.135
							c-168.841,24.797-339.605,42.755-509.911,53.62c-23.69,1.548-40.521,25.098-37.611,52.787l0,0
							c2.913,27.688,24.504,49.408,48.234,48.237c170.547-8.577,341.311-26.534,509.911-53.621
							c23.457-3.802,40.051-29.531,37.147-57.216l0,0C2175.131,1991.25,2153.783,1971.713,2130.274,1975.135z"/>
						
							<linearGradient id="SVGID_00000021087842358210752110000011789249019977237936_" gradientUnits="userSpaceOnUse" x1="1728.0103" y1="1595.0764" x2="1112.3093" y2="2520.0881" gradientTransform="matrix(1.2188 -0.1282 0.1046 0.9945 213.6024 -33.0601)">
							<stop  offset="0" style="stop-color:#444B8C"/>
							<stop  offset="0.9964" style="stop-color:#26264F"/>
						</linearGradient>
						<path style="fill:url(#SVGID_00000021087842358210752110000011789249019977237936_);" d="M2149.106,2154.224
							c-168.415,28.853-339.178,46.812-509.911,53.621c-23.749,0.986-40.638,23.986-37.728,51.679l0,0
							c2.913,27.684,24.561,49.945,48.351,49.344c170.973-4.523,341.737-22.48,509.911-53.621
							c23.398-4.36,39.935-30.637,37.031-58.322l0,0C2193.846,2169.231,2172.557,2150.247,2149.106,2154.224z"/>
					</g>
					<g>
						
							<linearGradient id="SVGID_00000045596269168602120130000002916277293777112498_" gradientUnits="userSpaceOnUse" x1="891.6945" y1="1038.3586" x2="275.9874" y2="1963.3795" gradientTransform="matrix(1.2188 -0.1282 0.1046 0.9945 213.6024 -33.0601)">
							<stop  offset="0" style="stop-color:#444B8C"/>
							<stop  offset="0.9964" style="stop-color:#26264F"/>
						</linearGradient>
						<path style="fill:url(#SVGID_00000045596269168602120130000002916277293777112498_);" d="M1380.564,1163.734
							c-166.47,38.769-329.652,90.65-487.171,155.391c-21.911,9.107-37.704,34.304-35.426,55.9l0,0
							c2.267,21.605,21.87,32.604,43.918,24.849c158.381-56.552,322.184-102.53,489.034-137.683
							c23.216-4.858,39.752-30.812,36.871-58.286l0,0C1424.909,1176.438,1403.711,1158.293,1380.564,1163.734z"/>
						
							<linearGradient id="SVGID_00000072259733215960910760000005666573287634681771_" gradientUnits="userSpaceOnUse" x1="965.004" y1="1087.1602" x2="349.2982" y2="2012.1791" gradientTransform="matrix(1.2188 -0.1282 0.1046 0.9945 213.6024 -33.0601)">
							<stop  offset="0" style="stop-color:#444B8C"/>
							<stop  offset="0.9964" style="stop-color:#26264F"/>
						</linearGradient>
						<path style="fill:url(#SVGID_00000072259733215960910760000005666573287634681771_);" d="M1398.917,1338.27
							c-167.144,32.363-331.426,73.779-490.472,124.002c-22.122,7.095-38.098,30.557-35.82,52.156l0,0
							c2.267,21.605,22.051,34.326,44.311,28.593c159.907-42.033,324.811-77.548,492.334-106.294
							c23.311-3.956,39.912-29.288,37.032-56.757l0,0C1443.423,1352.501,1422.158,1333.717,1398.917,1338.27z"/>
						
							<linearGradient id="SVGID_00000088123758370799949360000007435618415409852339_" gradientUnits="userSpaceOnUse" x1="1038.2867" y1="1135.948" x2="422.5847" y2="2060.9614" gradientTransform="matrix(1.2188 -0.1282 0.1046 0.9945 213.6024 -33.0601)">
							<stop  offset="0" style="stop-color:#444B8C"/>
							<stop  offset="0.9964" style="stop-color:#26264F"/>
						</linearGradient>
						<path style="fill:url(#SVGID_00000088123758370799949360000007435618415409852339_);" d="M1417.271,1512.806
							c-167.817,25.953-333.2,56.906-493.773,92.612c-22.334,5.078-38.492,26.812-36.213,48.414l0,0
							c2.267,21.605,22.233,36.051,44.705,32.336c161.434-27.515,327.438-52.566,495.635-74.905
							c23.405-3.063,40.072-27.762,37.193-55.229c0.002,0,0.002,0,0,0C1461.938,1528.566,1440.607,1509.154,1417.271,1512.806z"/>
						
							<linearGradient id="SVGID_00000180348274686742968770000012987441679546603150_" gradientUnits="userSpaceOnUse" x1="1111.5487" y1="1184.7231" x2="495.8477" y2="2109.7349" gradientTransform="matrix(1.2188 -0.1282 0.1046 0.9945 213.6024 -33.0601)">
							<stop  offset="0" style="stop-color:#444B8C"/>
							<stop  offset="0.9964" style="stop-color:#26264F"/>
						</linearGradient>
						<path style="fill:url(#SVGID_00000180348274686742968770000012987441679546603150_);" d="M1435.625,1687.343
							c-168.491,19.546-334.975,40.035-497.074,61.221c-22.547,3.056-38.886,23.07-36.607,44.671l0,0
							c2.267,21.606,22.414,37.776,45.098,36.079c162.961-12.997,330.065-27.586,498.936-43.516
							c23.498-2.174,40.234-26.227,37.354-53.699c0.001-0.001,0.001-0.001,0,0
							C1480.452,1704.632,1459.054,1684.582,1435.625,1687.343z"/>
						
							<linearGradient id="SVGID_00000003081289591347336480000012464633436730334380_" gradientUnits="userSpaceOnUse" x1="1184.7926" y1="1233.4863" x2="569.0936" y2="2158.4951" gradientTransform="matrix(1.2188 -0.1282 0.1046 0.9945 213.6024 -33.0601)">
							<stop  offset="0" style="stop-color:#444B8C"/>
							<stop  offset="0.9964" style="stop-color:#26264F"/>
						</linearGradient>
						<path style="fill:url(#SVGID_00000003081289591347336480000012464633436730334380_);" d="M1453.979,1861.878
							c-169.165,13.138-336.749,23.164-500.375,29.833c-22.759,1.041-39.28,19.32-37.001,40.927l0,0
							c2.266,21.597,22.595,39.5,45.492,39.822c164.487,1.522,332.691-2.604,502.237-12.126
							c23.593-1.276,40.394-24.707,37.514-52.172c0.002,0,0.002,0,0,0C1498.966,1880.691,1477.502,1860.014,1453.979,1861.878z"/>
						
							<linearGradient id="SVGID_00000170963894126859558880000014828821390582667926_" gradientUnits="userSpaceOnUse" x1="1258.0203" y1="1282.2413" x2="642.3246" y2="2207.2451" gradientTransform="matrix(1.2188 -0.1282 0.1046 0.9945 213.6024 -33.0601)">
							<stop  offset="0" style="stop-color:#444B8C"/>
							<stop  offset="0.9964" style="stop-color:#26264F"/>
						</linearGradient>
						<path style="fill:url(#SVGID_00000170963894126859558880000014828821390582667926_);" d="M1472.332,2036.415
							c-169.839,6.729-338.523,6.294-503.676-1.557c-22.971-0.981-39.673,15.577-37.394,37.184l0,0
							c2.266,21.599,22.777,41.23,45.886,43.565c166.014,16.041,335.318,22.377,505.538,19.263
							c23.687-0.382,40.554-23.182,37.675-50.643l0,0C1517.48,2056.755,1495.949,2035.436,1472.332,2036.415z"/>
						
							<linearGradient id="SVGID_00000026125809900053866360000002339613444613170613_" gradientUnits="userSpaceOnUse" x1="1331.234" y1="1330.9915" x2="715.5428" y2="2255.9888" gradientTransform="matrix(1.2188 -0.1282 0.1046 0.9945 213.6024 -33.0601)">
							<stop  offset="0" style="stop-color:#444B8C"/>
							<stop  offset="0.9964" style="stop-color:#26264F"/>
						</linearGradient>
						<path style="fill:url(#SVGID_00000026125809900053866360000002339613444613170613_);" d="M1490.686,2210.95
							c-170.513,0.322-340.297-10.577-506.977-32.946c-23.183-2.998-40.067,11.838-37.788,33.44l0,0
							c2.266,21.603,22.958,42.947,46.279,47.308c167.541,30.559,337.945,47.361,508.838,50.653
							c23.78,0.505,40.715-21.649,37.836-49.115l0,0C1535.995,2232.817,1514.397,2210.867,1490.686,2210.95z"/>
					</g>
				</g>
			</g>
			<g style="opacity:0.6;">
				
					<linearGradient id="SVGID_00000179638097906706878830000016380187578994725289_" gradientUnits="userSpaceOnUse" x1="982.7764" y1="1884.5532" x2="1779.1138" y2="1884.5532" gradientTransform="matrix(0.9945 -0.1046 0.1046 0.9945 114.2302 -22.5264)">
					<stop  offset="0.0036" style="stop-color:#E38DDD"/>
					<stop  offset="1" style="stop-color:#9571F6"/>
				</linearGradient>
				<path style="fill:url(#SVGID_00000179638097906706878830000016380187578994725289_);" d="M2002.547,1594.686
					c-98.282-208.32-379.087-158.944-468.668-345.257c-36.146-75.176-41.745-189.966,53.476-373.13l-19.02,2
					c-202.736,21.319-349.803,202.951-328.484,405.687l97.767,929.729c21.319,202.736,202.952,349.803,405.687,328.484
					l303.734-31.94c42.455-4.464,82.454-15.983,118.992-33.229c-137.691-144.172-182.921-273.168-195.096-373.443
					C1943.377,1876.586,2080.671,1760.283,2002.547,1594.686z"/>
			</g>
			
				<linearGradient id="SVGID_00000153691446072571138370000014763538330858239405_" gradientUnits="userSpaceOnUse" x1="2094.478" y1="2483.4407" x2="1871.0538" y2="2806.8184">
				<stop  offset="0" style="stop-color:#444B8C"/>
				<stop  offset="0.9964" style="stop-color:#26264F"/>
			</linearGradient>
			
				<circle style="fill:url(#SVGID_00000153691446072571138370000014763538330858239405_);" cx="1911.998" cy="2747.557" r="97.482"/>
			<path style="opacity:0.3;fill:#FFFFFF;" d="M1812.734,2406.27c-94.398-0.01-173.044-88.994-182.937-206.985l-77.957-929.73
				c-5.149-61.398,9.076-121.635,40.053-169.616c30.978-47.979,75-77.958,123.958-84.415l242.19-31.94
				c6.527-0.861,13.132-1.297,19.632-1.297c94.392,0,173.033,88.984,182.927,206.986l77.957,929.728
				c10.628,126.746-62.948,240.704-164.012,254.032l-242.188,31.939c-6.527,0.861-13.125,1.297-19.608,1.297
				C1812.743,2406.27,1812.737,2406.27,1812.734,2406.27z"/>
		</g>
		<g>
			
				<linearGradient id="SVGID_00000055701709083278787990000017958919321229548972_" gradientUnits="userSpaceOnUse" x1="2828.6497" y1="916.8732" x2="2325.4812" y2="1943.4283">
				<stop  offset="0" style="stop-color:#444B8C"/>
				<stop  offset="0.9964" style="stop-color:#26264F"/>
			</linearGradient>
			<path style="fill:url(#SVGID_00000055701709083278787990000017958919321229548972_);" d="M2707.539,1450.711
				c0,66.002-65.54,139.824-151.296,166.407c-91.707,28.428-170.857-7.46-170.857-81.995c0-74.536,79.15-151.902,170.857-171.533
				C2641.999,1345.233,2707.539,1384.709,2707.539,1450.711z"/>
			
				<linearGradient id="SVGID_00000141424529472114816170000016389172198746750351_" gradientUnits="userSpaceOnUse" x1="2773.8167" y1="980.2301" x2="2357.821" y2="1828.9368">
				<stop  offset="0" style="stop-color:#444B8C"/>
				<stop  offset="0.9964" style="stop-color:#26264F"/>
			</linearGradient>
			<polygon style="fill:url(#SVGID_00000141424529472114816170000016389172198746750351_);" points="2707.539,1450.711 
				2668.486,1460.944 2668.486,859.86 2707.539,858.902 			"/>
			
				<linearGradient id="SVGID_00000068662504355951704170000009899054387757243326_" gradientUnits="userSpaceOnUse" x1="2716.0303" y1="950.3578" x2="2303.8147" y2="1791.3521">
				<stop  offset="0" style="stop-color:#444B8C"/>
				<stop  offset="0.9964" style="stop-color:#26264F"/>
			</linearGradient>
			<path style="fill:url(#SVGID_00000068662504355951704170000009899054387757243326_);" d="M2807.723,1012.447
				c2.947,5.037-22.64-177.333-139.237-214.626V898.35C2668.486,898.35,2717.74,858.652,2807.723,1012.447z"/>
		</g>
		<g>
			
				<linearGradient id="SVGID_00000047740223466000549120000008068573828935144856_" gradientUnits="userSpaceOnUse" x1="3103.5811" y1="815.4927" x2="2767.9895" y2="1500.16">
				<stop  offset="0.0036" style="stop-color:#E38DDD"/>
				<stop  offset="1" style="stop-color:#9571F6"/>
			</linearGradient>
			<path style="fill:url(#SVGID_00000047740223466000549120000008068573828935144856_);" d="M3022.806,1171.539
				c0,44.021-43.712,93.257-100.908,110.987c-61.165,18.96-113.954-4.975-113.954-54.688c0-49.712,52.789-101.312,113.954-114.405
				C2979.094,1101.19,3022.806,1127.519,3022.806,1171.539z"/>
			
				<linearGradient id="SVGID_00000044159456764249788470000000240708804271616940_" gradientUnits="userSpaceOnUse" x1="3067.0098" y1="857.7488" x2="2789.5586" y2="1423.7992">
				<stop  offset="0.0036" style="stop-color:#E38DDD"/>
				<stop  offset="1" style="stop-color:#9571F6"/>
			</linearGradient>
			<polygon style="fill:url(#SVGID_00000044159456764249788470000000240708804271616940_);" points="3022.806,1171.539 
				2996.759,1178.364 2996.759,777.467 3022.806,776.828 			"/>
			
				<linearGradient id="SVGID_00000120554183325069192500000016585602025883553460_" gradientUnits="userSpaceOnUse" x1="3028.4688" y1="837.8251" x2="2753.5383" y2="1398.733">
				<stop  offset="0.0036" style="stop-color:#E38DDD"/>
				<stop  offset="1" style="stop-color:#9571F6"/>
			</linearGradient>
			<path style="fill:url(#SVGID_00000120554183325069192500000016585602025883553460_);" d="M3089.624,879.236
				c1.966,3.36-15.1-118.273-92.865-143.147v67.049C2996.759,803.138,3029.609,776.662,3089.624,879.236z"/>
		</g>
	</g>
</g>
</svg>
