<?xml version="1.0" encoding="UTF-8"?>
<!DOCTYPE svg PUBLIC "-//W3C//DTD SVG 1.1//EN" "http://www.w3.org/Graphics/SVG/1.1/DTD/svg11.dtd">
<!-- Creator: CorelDRAW X7 -->
<svg xmlns="http://www.w3.org/2000/svg" xml:space="preserve" width="5.20833in" height="5.20833in" version="1.1" style="shape-rendering:geometricPrecision; text-rendering:geometricPrecision; image-rendering:optimizeQuality; fill-rule:evenodd; clip-rule:evenodd"
viewBox="0 0 5208 5208"
 xmlns:xlink="http://www.w3.org/1999/xlink">
 <defs>
  <style type="text/css">
   <![CDATA[
    .fil1 {fill:#FEFEFE}
    .fil0 {fill:url(#id0)}
   ]]>
  </style>
  <radialGradient id="id0" gradientUnits="userSpaceOnUse" gradientTransform="matrix(-2.1645 2.1645 -2.1645 -2.1645 16629 -11349)" cx="5251.04" cy="5.41732" r="2406.25" fx="5251.04" fy="5.41732">
   <stop offset="0" style="stop-opacity:1; stop-color:#F58634"/>
   <stop offset="0.521569" style="stop-opacity:1; stop-color:#EC268F"/>
   <stop offset="1" style="stop-opacity:1; stop-color:#3E4095"/>
  </radialGradient>
 </defs>
 <g id="Layer_x0020_1">
  <metadata id="CorelCorpID_0Corel-Layer"/>
  <path class="fil0" d="M1669 3426l0 -1644c0,-42 34,-76 76,-76l303 0c41,0 76,34 76,76l0 1644c0,42 -35,76 -76,76l-303 0c-42,0 -76,-34 -76,-76zm-671 -989l0 334c0,28 -23,52 -52,52l-130 0c-28,0 -52,-24 -52,-52l0 -334c0,-28 24,-51 52,-51l130 0c29,0 52,23 52,51zm-800 2073c0,275 225,500 501,500l3811 0c275,0 500,-225 500,-500l0 -3811c0,-276 -225,-501 -500,-501l-3811 0c-276,0 -501,225 -501,501l0 3811zm1255 -2396c29,0 53,24 53,53l0 874c0,30 -24,53 -53,53l-239 0c-29,0 -53,-23 -53,-53l0 -874c0,-29 24,-53 53,-53l239 0zm874 1657l0 -2333c0,-50 41,-91 91,-91l373 0c49,0 90,41 90,91l0 2333c0,49 -41,90 -90,90l-373 0c-50,0 -91,-41 -91,-90zm758 -366l0 -1602c0,-53 43,-97 97,-97l260 0c54,0 97,44 97,97l0 1602c0,54 -43,97 -97,97l-260 0c-54,0 -97,-43 -97,-97zm617 -363l0 -876c0,-29 23,-52 52,-52l241 0c29,0 52,23 52,52l0 876c0,29 -23,52 -52,52l-241 0c-29,0 -52,-23 -52,-52zm508 -271l0 -333c0,-29 24,-52 52,-52l130 0c29,0 52,23 52,52l0 333c0,28 -23,52 -52,52l-130 0c-28,0 -52,-24 -52,-52z"/>
  <path class="fil1" d="M998 2771l0 -334c0,-28 -23,-51 -52,-51l-130 0c-28,0 -52,23 -52,51l0 334c0,28 24,52 52,52l130 0c29,0 52,-24 52,-52z"/>
  <path class="fil1" d="M1161 2167l0 874c0,30 24,53 53,53l239 0c29,0 53,-23 53,-53l0 -874c0,-29 -24,-53 -53,-53l-239 0c-29,0 -53,24 -53,53z"/>
  <path class="fil1" d="M1669 1782l0 1644c0,42 34,76 76,76l303 0c41,0 76,-34 76,-76l0 -1644c0,-42 -35,-76 -76,-76l-303 0c-42,0 -76,34 -76,76z"/>
  <path class="fil1" d="M2327 1438l0 2333c0,49 41,90 91,90l373 0c49,0 90,-41 90,-90l0 -2333c0,-50 -41,-91 -90,-91l-373 0c-50,0 -91,41 -91,91z"/>
  <path class="fil1" d="M3085 1803l0 1602c0,54 43,97 97,97l260 0c54,0 97,-43 97,-97l0 -1602c0,-53 -43,-97 -97,-97l-260 0c-54,0 -97,44 -97,97z"/>
  <path class="fil1" d="M3702 2166l0 876c0,29 23,52 52,52l241 0c29,0 52,-23 52,-52l0 -876c0,-29 -23,-52 -52,-52l-241 0c-29,0 -52,23 -52,52z"/>
  <path class="fil1" d="M4210 2438l0 333c0,28 24,52 52,52l130 0c29,0 52,-24 52,-52l0 -333c0,-29 -23,-52 -52,-52l-130 0c-28,0 -52,23 -52,52z"/>
 </g>
</svg>
