<?xml version="1.0" encoding="UTF-8"?>
<!DOCTYPE svg PUBLIC "-//W3C//DTD SVG 1.1//EN" "http://www.w3.org/Graphics/SVG/1.1/DTD/svg11.dtd">
<!-- Creator: CorelDRAW X7 -->
<svg xmlns="http://www.w3.org/2000/svg" xml:space="preserve" width="5.20833in" height="5.20833in" version="1.1" style="shape-rendering:geometricPrecision; text-rendering:geometricPrecision; image-rendering:optimizeQuality; fill-rule:evenodd; clip-rule:evenodd"
viewBox="0 0 5208 5208"
 xmlns:xlink="http://www.w3.org/1999/xlink">
 <defs>
  <style type="text/css">
   <![CDATA[
    .fil0 {fill:#FEFEFE}
   ]]>
  </style>
 </defs>
 <g id="Layer_x0020_1">
  <metadata id="CorelCorpID_0Corel-Layer"/>
  <path class="fil0" d="M2418 1347c-50,0 -91,41 -91,91l0 2333c0,49 41,90 91,90l373 0c49,0 90,-41 90,-90l0 -2333c0,-50 -41,-91 -90,-91l-373 0z"/>
  <path class="fil0" d="M3085 1803l0 1602c0,54 43,97 97,97l260 0c54,0 97,-43 97,-97l0 -1602c0,-53 -43,-97 -97,-97l-260 0c-54,0 -97,44 -97,97z"/>
  <path class="fil0" d="M3702 2166l0 876c0,29 23,52 52,52l241 0c29,0 52,-23 52,-52l0 -876c0,-29 -23,-52 -52,-52l-241 0c-29,0 -52,23 -52,52z"/>
  <path class="fil0" d="M4210 2438l0 333c0,28 24,52 52,52l130 0c29,0 52,-24 52,-52l0 -333c0,-29 -23,-52 -52,-52l-130 0c-28,0 -52,23 -52,52z"/>
  <path class="fil0" d="M1506 3041l0 -874c0,-29 -24,-53 -53,-53l-239 0c-29,0 -53,24 -53,53l0 874c0,30 24,53 53,53l239 0c29,0 53,-23 53,-53z"/>
  <path class="fil0" d="M998 2771l0 -334c0,-28 -23,-51 -52,-51l-130 0c-28,0 -52,23 -52,51l0 334c0,28 24,52 52,52l130 0c29,0 52,-24 52,-52z"/>
  <path class="fil0" d="M699 5010c-276,0 -501,-225 -501,-500l0 -3811c0,-276 225,-501 501,-501l3811 0c275,0 500,225 500,501l0 3811c0,275 -225,500 -500,500l-3811 0zm3885 -4916l-3959 0c-292,0 -531,239 -531,531l0 3959c0,292 239,531 531,531l3959 0c292,0 531,-239 531,-531l0 -3959c0,-292 -239,-531 -531,-531z"/>
  <path class="fil0" d="M1669 1782l0 1644c0,42 34,76 76,76l303 0c41,0 76,-34 76,-76l0 -1644c0,-42 -35,-76 -76,-76l-303 0c-42,0 -76,34 -76,76z"/>
 </g>
</svg>
